<svg width="1000" height="1000" viewBox="0 0 1000 1000" fill="none" xmlns="http://www.w3.org/2000/svg">
<path fill-rule="evenodd" clip-rule="evenodd" d="M201.483 761.481C260.627 808.151 345.364 814.608 412.081 771.487L747.39 554.721C747.82 554.921 748.25 555.12 748.681 555.318L783.775 532.631C834.411 499.904 863.264 445.981 866.238 389.93C865.89 389.87 865.542 389.809 865.195 389.747C867.291 352.782 858.125 314.885 836.533 281.486C825.702 264.73 812.552 250.358 797.771 238.52C738.627 191.849 653.89 185.392 587.172 228.512L251.863 445.279C251.433 445.079 251.003 444.88 250.572 444.682L215.479 467.369C164.842 500.096 135.989 554.019 133.016 610.07C133.363 610.13 133.711 610.191 134.058 610.253C131.963 647.218 141.128 685.115 162.72 718.514C173.552 735.27 186.702 749.643 201.483 761.481ZM126.195 859.665C99.4514 838.802 76.5288 813.708 57.8792 784.859C35.5479 750.334 20.6613 712.428 13.598 672.219C6.78582 633.401 7.55141 594.114 15.8394 555.446C24.1415 516.781 39.5856 480.646 61.7329 448.046C84.6804 414.281 113.83 385.83 148.352 363.513L519.043 123.886C540.95 109.712 564.22 98.5357 588.578 90.4618C602.597 85.8166 616.992 82.1885 631.683 79.6052C670.487 72.79 709.777 73.5415 748.442 81.8436C777.213 88.0364 804.589 98.1659 830.145 112.067C838.932 116.837 847.515 122.07 855.841 127.737C861.746 131.75 867.488 135.952 873.064 140.34C899.805 161.201 922.726 186.294 941.374 215.141C963.705 249.666 978.592 287.572 985.655 327.781C992.468 366.6 991.702 405.886 983.414 444.554C975.112 483.219 959.668 519.354 937.521 551.954C914.573 585.719 885.423 614.17 850.901 636.487L480.211 876.114C458.304 890.288 435.034 901.464 410.676 909.538C396.657 914.183 382.261 917.811 367.57 920.395C328.766 927.21 289.476 926.459 250.812 918.156C222.04 911.964 194.664 901.834 169.108 887.933C160.322 883.163 151.739 877.93 143.412 872.263C137.509 868.251 131.769 864.05 126.195 859.665Z" fill="url(#paint0_linear_13_13032)"/>
<defs>
<linearGradient id="paint0_linear_13_13032" x1="498.315" y1="927.187" x2="498.315" y2="75.3814" gradientUnits="userSpaceOnUse">
<stop stop-color="#0177E4"/>
<stop offset="1" stop-color="#08B8B8"/>
</linearGradient>
</defs>
</svg>
