<svg width="3126" height="931" viewBox="0 0 3126 931" fill="none" xmlns="http://www.w3.org/2000/svg">
<path d="M765.659 582.612L449.609 786.928C420.176 805.955 387.868 818.662 353.573 824.682C320.492 830.48 286.994 829.839 254.016 822.758C221.051 815.68 190.243 802.513 162.458 783.645C133.657 764.077 109.413 739.227 90.3859 709.794C71.3464 680.359 58.6542 648.041 52.6321 613.758C46.8241 580.662 47.4769 547.167 54.5431 514.199C61.6215 481.234 74.7889 450.426 93.6714 422.631C113.236 393.843 138.089 369.586 167.522 350.559L483.569 146.256C502.247 134.171 522.087 124.642 542.854 117.758C554.807 113.798 567.08 110.705 579.605 108.502C612.689 102.691 646.188 103.332 679.153 110.41C703.683 115.69 727.024 124.327 748.812 136.178C756.303 140.246 763.621 144.707 770.72 149.539C799.509 169.104 823.768 193.944 842.793 223.389C861.82 252.822 874.527 285.131 880.549 319.413C882.026 327.88 883.092 336.372 883.738 344.875L868.035 355.026C840.56 372.788 808.617 378.299 778.695 372.926C780.482 341.41 772.668 309.1 754.259 280.623C735.85 252.147 709.586 231.743 680.115 220.434C635.611 203.35 583.808 206.978 540.804 234.79L224.754 439.105C153.264 485.31 132.702 581.068 178.92 652.56C225.128 724.038 320.885 744.599 392.375 698.394L678.256 513.581C697.799 522.67 718.36 529.556 739.707 534.14C764.969 539.551 790.498 541.598 815.973 540.237C801.168 556.36 784.346 570.542 765.659 582.612Z" fill="url(#paint0_linear_15_13036)"/>
<path d="M837.785 817.379C797.609 817.379 762.805 811.793 733.371 800.621C704.152 789.449 681.271 773.229 664.729 751.959C648.4 730.475 639.377 704.479 637.658 673.971L637.336 667.848H763.02L763.664 670.748C765.598 679.127 770.109 686.432 777.199 692.662C784.289 698.893 793.205 703.834 803.947 707.486C814.689 710.924 826.506 712.643 839.396 712.643C853.146 712.643 864.855 710.924 874.523 707.486C884.406 704.049 892.033 699.322 897.404 693.307C902.775 687.291 905.461 680.416 905.461 672.682V672.359C905.461 661.402 900.197 653.131 889.67 647.545C879.143 641.959 860.988 636.803 835.207 632.076L788.479 623.697C742.287 615.533 706.838 599.957 682.131 576.969C657.639 553.98 645.393 524.439 645.393 488.346V488.023C645.393 456.871 653.557 429.908 669.885 407.135C686.428 384.361 709.094 366.744 737.883 354.283C766.672 341.822 799.436 335.592 836.174 335.592C877.639 335.592 912.551 341.393 940.91 352.994C969.27 364.596 990.969 381.139 1006.01 402.623C1021.05 423.893 1029.21 449.029 1030.5 478.033L1030.82 485.123H905.139L904.816 481.9C903.957 473.307 900.52 466.002 894.504 459.986C888.703 453.756 880.861 448.922 870.979 445.484C861.311 442.047 850.246 440.328 837.785 440.328C825.324 440.328 814.797 442.047 806.203 445.484C797.824 448.707 791.486 453.219 787.189 459.02C782.893 464.605 780.744 470.943 780.744 478.033V478.355C780.744 488.883 786.008 497.047 796.535 502.848C807.062 508.434 823.928 513.375 847.131 517.672L893.859 526.051C927.16 532.066 954.66 540.768 976.359 552.154C998.059 563.541 1014.17 578.15 1024.7 595.982C1035.44 613.6 1040.81 634.977 1040.81 660.113V660.436C1040.81 692.447 1032.76 720.27 1016.64 743.902C1000.74 767.32 977.648 785.475 947.355 798.365C917.062 811.041 880.539 817.379 837.785 817.379ZM1084.32 809V453.219H1216.45V809H1084.32ZM1150.38 421.314C1131.91 421.314 1116.33 415.084 1103.65 402.623C1091.19 390.162 1084.96 375.445 1084.96 358.473C1084.96 341.285 1091.19 326.568 1103.65 314.322C1116.33 301.861 1131.91 295.631 1150.38 295.631C1168.86 295.631 1184.33 301.861 1196.79 314.322C1209.46 326.568 1215.8 341.285 1215.8 358.473C1215.8 375.445 1209.46 390.162 1196.79 402.623C1184.33 415.084 1168.86 421.314 1150.38 421.314ZM1266.08 809V453.219H1398.21V519.283H1400.78C1409.59 495.221 1423.02 476.959 1441.07 464.498C1459.11 451.822 1481.56 445.484 1508.42 445.484C1547.52 445.484 1577.6 457.301 1598.65 480.934C1619.92 504.566 1630.56 537.76 1630.56 580.514V809H1498.43V609.518C1498.43 591.686 1494.24 577.613 1485.86 567.301C1477.48 556.988 1465.02 551.832 1448.48 551.832C1438.17 551.832 1429.25 554.303 1421.73 559.244C1414.21 564.186 1408.41 570.953 1404.33 579.547C1400.25 588.141 1398.21 598.023 1398.21 609.195V809H1266.08ZM1808.45 816.734C1779.02 816.734 1753.88 809.537 1733.04 795.143C1712.41 780.533 1696.62 759.479 1685.67 731.979C1674.92 704.264 1669.55 670.641 1669.55 631.109V630.787C1669.55 591.041 1674.92 557.418 1685.67 529.918C1696.62 502.203 1712.41 481.256 1733.04 467.076C1753.88 452.682 1779.23 445.484 1809.09 445.484C1826.07 445.484 1841.43 448.385 1855.18 454.186C1869.14 459.771 1881.17 467.936 1891.27 478.678C1901.37 489.42 1909.21 502.311 1914.8 517.35H1917.38V343.971H2049.5V809H1917.38V748.092H1914.8C1909.43 762.486 1901.69 774.84 1891.59 785.152C1881.5 795.25 1869.36 803.092 1855.18 808.678C1841.21 814.049 1825.64 816.734 1808.45 816.734ZM1860.33 710.387C1871.94 710.387 1882.03 707.271 1890.63 701.041C1899.22 694.811 1905.77 685.787 1910.29 673.971C1915.01 662.154 1917.38 647.975 1917.38 631.432V631.109C1917.38 614.352 1915.01 600.064 1910.29 588.248C1905.56 576.432 1898.9 567.408 1890.3 561.178C1881.93 554.947 1871.94 551.832 1860.33 551.832C1848.95 551.832 1838.96 554.947 1830.36 561.178C1821.98 567.408 1815.43 576.432 1810.71 588.248C1805.98 600.064 1803.62 614.244 1803.62 630.787V631.109C1803.62 647.438 1805.87 661.51 1810.38 673.326C1815.11 685.143 1821.77 694.273 1830.36 700.719C1838.96 707.164 1848.95 710.387 1860.33 710.387ZM2276.06 816.734C2237.6 816.734 2204.51 809.322 2176.8 794.498C2149.08 779.674 2127.71 758.404 2112.67 730.689C2097.84 702.76 2090.43 669.566 2090.43 631.109V630.787C2090.43 592.115 2097.84 559.029 2112.67 531.529C2127.49 503.814 2148.44 482.545 2175.51 467.721C2202.79 452.896 2234.91 445.484 2271.87 445.484C2308.82 445.484 2340.83 452.789 2367.9 467.398C2395.19 482.008 2416.24 502.633 2431.07 529.273C2446.11 555.914 2453.62 587.281 2453.62 623.375V660.758H2154.88V585.992H2392.39L2331.49 656.246V605.328C2331.49 590.934 2329.12 578.58 2324.4 568.268C2319.88 557.955 2313.44 550.113 2305.06 544.742C2296.68 539.156 2286.8 536.363 2275.41 536.363C2264.03 536.363 2254.14 539.156 2245.76 544.742C2237.38 550.113 2230.83 557.955 2226.11 568.268C2221.59 578.58 2219.34 590.934 2219.34 605.328V656.891C2219.34 671.285 2221.7 683.639 2226.43 693.951C2231.15 704.264 2237.92 712.213 2246.73 717.799C2255.54 723.17 2266.17 725.855 2278.63 725.855C2290.24 725.855 2299.9 724.029 2307.64 720.377C2315.37 716.51 2321.39 712.105 2325.69 707.164C2330.2 702.223 2332.99 698.033 2334.06 694.596L2334.39 693.629H2452.01L2451.05 697.818C2448.47 709.42 2443.63 722.096 2436.54 735.846C2429.46 749.381 2419.25 762.379 2405.93 774.84C2392.61 787.086 2375.31 797.184 2354.04 805.133C2332.99 812.867 2306.99 816.734 2276.06 816.734ZM2658.91 816.734C2621.53 816.734 2590.05 811.793 2564.48 801.91C2538.92 791.812 2519.15 777.848 2505.19 760.016C2491.22 742.184 2482.84 721.451 2480.05 697.818L2479.73 694.918H2607.35L2607.99 697.496C2610.57 707.809 2615.94 715.865 2624.1 721.666C2632.48 727.467 2644.08 730.367 2658.91 730.367C2667.5 730.367 2674.81 729.508 2680.82 727.789C2687.05 725.855 2691.78 723.17 2695 719.732C2698.44 716.295 2700.16 712.213 2700.16 707.486V707.164C2700.16 700.719 2697.15 695.562 2691.13 691.695C2685.12 687.613 2674.81 684.176 2660.2 681.383L2595.74 669.459C2572.33 665.162 2552.56 658.287 2536.45 648.834C2520.33 639.166 2508.2 627.135 2500.03 612.74C2491.87 598.346 2487.79 582.018 2487.79 563.756V563.434C2487.79 538.727 2494.45 517.672 2507.77 500.27C2521.09 482.652 2540.21 469.117 2565.13 459.664C2590.05 450.211 2619.7 445.484 2654.07 445.484C2690.81 445.484 2721.43 450.963 2745.92 461.92C2770.63 472.877 2789.21 487.379 2801.67 505.426C2814.13 523.473 2820.36 543.346 2820.36 565.045V567.301H2700.48L2700.16 564.4C2699.3 556.021 2694.89 548.502 2686.95 541.842C2679.21 535.182 2668.25 531.852 2654.07 531.852C2646.12 531.852 2639.14 532.818 2633.13 534.752C2627.11 536.686 2622.38 539.479 2618.95 543.131C2615.72 546.568 2614.11 550.865 2614.11 556.021V556.344C2614.11 560.426 2615.29 564.078 2617.66 567.301C2620.02 570.309 2624.21 572.994 2630.23 575.357C2636.24 577.721 2644.62 579.977 2655.36 582.125L2719.82 594.049C2758.27 601.139 2786.42 612.525 2804.25 628.209C2822.08 643.893 2831 665.162 2831 692.018V692.34C2831 717.906 2823.8 740.035 2809.41 758.727C2795.01 777.203 2774.92 791.49 2749.14 801.588C2723.36 811.686 2693.28 816.734 2658.91 816.734ZM2866.45 809V453.219H2998.58V809H2866.45ZM2932.51 421.314C2914.04 421.314 2898.46 415.084 2885.78 402.623C2873.32 390.162 2867.09 375.445 2867.09 358.473C2867.09 341.285 2873.32 326.568 2885.78 314.322C2898.46 301.861 2914.04 295.631 2932.51 295.631C2950.99 295.631 2966.46 301.861 2978.92 314.322C2991.59 326.568 2997.93 341.285 2997.93 358.473C2997.93 375.445 2991.59 390.162 2978.92 402.623C2966.46 415.084 2950.99 421.314 2932.51 421.314Z" fill="white"/>
<defs>
<linearGradient id="paint0_linear_15_13036" x1="378.008" y1="849.022" x2="543.312" y2="79.1747" gradientUnits="userSpaceOnUse">
<stop stop-color="#0177E4"/>
<stop offset="1" stop-color="#08B8B8"/>
</linearGradient>
</defs>
</svg>
